<?xml version="1.0" encoding="UTF-8" standalone="no"?>
<svg
   id="Layer_1"
   viewBox="0 0 495.71001 160.24001"
   version="1.1"
   sodipodi:docname="full_logo_black.svg"
   width="495.70999"
   height="160.24001"
   inkscape:version="1.3.2 (091e20e, 2023-11-25, custom)"
   xmlns:inkscape="http://www.inkscape.org/namespaces/inkscape"
   xmlns:sodipodi="http://sodipodi.sourceforge.net/DTD/sodipodi-0.dtd"
   xmlns="http://www.w3.org/2000/svg"
   xmlns:svg="http://www.w3.org/2000/svg">
  <defs
     id="defs11" />
  <sodipodi:namedview
     id="namedview11"
     pagecolor="#505050"
     bordercolor="#eeeeee"
     borderopacity="1"
     inkscape:showpageshadow="0"
     inkscape:pageopacity="0"
     inkscape:pagecheckerboard="0"
     inkscape:deskcolor="#505050"
     inkscape:zoom="1.9063995"
     inkscape:cx="270.14275"
     inkscape:cy="59.536314"
     inkscape:window-width="2560"
     inkscape:window-height="1369"
     inkscape:window-x="2552"
     inkscape:window-y="-8"
     inkscape:window-maximized="1"
     inkscape:current-layer="Layer_1" />
  <g
     id="g3"
     transform="translate(-33.67,-151.41)">
    <path
       d="m 86.76,197.26 v 67.46 h -8.04 v -67.46 h 8.04 m 3.74,-7.11 H 74.99 c -1.8,0 -3.27,1.48 -3.27,3.31 v 75.04 c 0,1.83 1.46,3.31 3.27,3.31 H 90.5 c 1.8,0 3.27,-1.48 3.27,-3.31 v -75.04 c 0,-1.83 -1.46,-3.31 -3.27,-3.31 z"
       id="path1" />
    <path
       d="m 120.51,250.65 c -2.44,-0.97 -4.95,-1.64 -7.49,-2.21 -1.29,-0.29 -2.59,-0.55 -3.89,-0.87 0.41,-0.08 1.02,-0.2 1.74,-0.36 4.65,-0.99 7.06,-1.65 9.69,-2.69 0.04,-0.01 0.07,-0.03 0.11,-0.04 4.8,-1.93 7.84,-6.77 7.84,-12.01 v -39.01 c 0,-1.83 -1.46,-3.31 -3.27,-3.31 h -20.6 c -1.8,0 -3.27,1.48 -3.27,3.31 v 75.04 c 0,1.83 1.46,3.31 3.27,3.31 h 20.6 c 1.8,0 3.27,-1.48 3.27,-3.31 v -5.7 c 0,-5.28 -3.07,-10.14 -7.9,-12.11 -0.04,-0.01 -0.07,-0.03 -0.11,-0.04 z"
       id="path2" />
    <path
       d="m 160.85,211.28 c 0,0 0.08,-0.03 0.12,-0.05 5.11,-2.06 8.34,-7.23 8.34,-12.82 v -4.95 c 0,-1.83 -1.46,-3.31 -3.27,-3.31 h -26.66 c -1.8,0 -3.27,1.48 -3.27,3.31 v 40.39 c 0,3.48 1.58,6.84 4.4,8.81 0.02,0.01 0.04,0.03 0.06,0.04 1.88,1.3 3.95,2.2 6.11,2.78 2.75,0.74 5.54,1.34 8.31,2 0.13,0.03 0.26,0.06 0.5,0.12 -1.13,0.23 -2.16,0.43 -3.18,0.66 -3.06,0.67 -6.1,1.43 -9.01,2.7 l -0.1,0.04 c -4.31,1.9 -7.1,6.21 -7.1,10.98 v 6.53 c 0,1.83 1.46,3.31 3.27,3.31 h 26.66 c 1.8,0 3.27,-1.48 3.27,-3.31 v -38.15 c 0,-5.62 -3.26,-10.82 -8.4,-12.91 -0.04,-0.02 -0.08,-0.03 -0.12,-0.05 -2.44,-0.97 -4.95,-1.64 -7.49,-2.21 -1.29,-0.29 -2.59,-0.55 -3.89,-0.87 0.41,-0.08 1.02,-0.2 1.74,-0.36 4.65,-0.99 7.06,-1.65 9.69,-2.69 z"
       id="path3" />
  </g>
  <g
     id="g9"
     transform="translate(-33.67,-151.41)">
    <path
       d="m 188.47,231.8 v -39.92 h 11.88 v 19.96 l 7.02,-5.68 21.6,-14.28 h 16.33 l -24.06,16.92 25.23,23.01 h -15.75 l -18.73,-17.09 -11.65,7.67 v 9.43 h -11.88 z"
       id="path4" />
    <path
       d="m 296.36,224.08 h -29.5 l -4.86,7.73 h -14.28 l 26.05,-39.92 h 15.81 l 25.99,39.92 h -14.4 l -4.8,-7.73 z m -5.21,-8.26 -9.54,-15.34 -9.6,15.34 z"
       id="path5" />
    <path
       d="m 318.08,231.8 v -39.92 h 11.88 v 39.92 z"
       id="path6" />
    <path
       d="m 336.29,231.8 v -39.92 h 44.43 c 8.02,0 12.35,2.93 12.35,9.78 0,4.98 -2.28,7.96 -6.73,9.13 5.39,1.23 8.2,4.33 8.2,10.36 0,7.61 -4.62,10.65 -13.76,10.65 z M 348,200.84 v 7.02 h 29.68 c 2.63,0 4.39,-1.05 4.39,-3.51 0,-2.46 -1.4,-3.51 -4.68,-3.51 h -29.38 z m 0,15.39 v 7.32 h 30.38 c 3.57,0 5.15,-0.82 5.15,-3.69 0,-2.87 -1.87,-3.63 -4.86,-3.63 z"
       id="path7" />
    <path
       d="m 399.51,231.8 v -39.92 h 39.98 c 9.83,0 16.68,3.45 16.68,13.93 0,8.78 -5.21,12.99 -14.05,13.7 l -2.58,0.06 3.16,1.93 13.11,10.3 H 440.88 L 426.54,220.21 H 411.38 V 231.8 H 399.5 Z m 11.89,-20.48 h 26.93 c 3.92,0 5.56,-1.29 5.56,-4.57 0,-3.57 -1.64,-4.68 -5.56,-4.68 H 411.4 Z"
       id="path8" />
    <path
       d="m 461.39,231.8 v -39.92 h 53.27 v 9.31 h -41.39 v 6.61 h 40.27 v 7.67 h -40.27 v 7.02 h 41.39 v 9.31 z"
       id="path9" />
  </g>
  <path
     d="M 482.44,27.91 H 39.72 c -7.32,0 -13.27,5.95 -13.27,13.27 v 77.79 c 0,7.32 5.95,13.27 13.27,13.27 h 442.72 c 7.32,0 13.27,-5.95 13.27,-13.27 V 41.18 c 0,-7.32 -5.95,-13.27 -13.27,-13.27 z M 141.56,126.56 H 39.72 c -4.18,0 -7.59,-3.4 -7.59,-7.59 V 41.18 c 0,-4.18 3.4,-7.59 7.59,-7.59 h 101.84 v 92.96 z m 35.18,-2.63 c -7.44,0 -16.07,-1.05 -21.45,-2.36 l 1.27,-7.14 c 6.13,1.36 13.57,2.54 22.55,2.54 7,0 8.27,-0.57 8.27,-2.36 0,-1.79 -1.09,-2.06 -3.41,-2.28 l -16.51,-0.96 c -9.28,-0.44 -12.65,-3.41 -12.65,-8.98 0,-6.7 5.87,-9.41 19.7,-9.41 5.3,0 13.92,0.83 19.83,2.1 l -1.44,6.7 c -5.08,-1.01 -12.96,-1.84 -20.45,-1.84 -8.06,0 -9.24,0.44 -9.24,2.23 0,1.66 1.14,1.93 3.85,2.1 l 16.29,0.96 c 8.58,0.48 12.43,3.46 12.43,9.63 0,6.17 -4.29,9.06 -19.05,9.06 z m 48.29,-0.57 h -8.89 V 112.28 L 195.91,93.5 h 11.38 l 13.4,12.08 13.4,-12.08 h 11.21 l -20.27,18.83 z m 41.77,0.57 c -7.44,0 -16.07,-1.05 -21.45,-2.36 l 1.27,-7.14 c 6.13,1.36 13.57,2.54 22.55,2.54 7.01,0 8.28,-0.57 8.28,-2.36 0,-1.79 -1.09,-2.06 -3.41,-2.28 l -16.51,-0.96 c -9.28,-0.44 -12.65,-3.41 -12.65,-8.98 0,-6.7 5.87,-9.41 19.7,-9.41 5.3,0 13.92,0.83 19.83,2.1 l -1.44,6.7 c -5.08,-1.01 -12.96,-1.84 -20.45,-1.84 -8.06,0 -9.24,0.44 -9.24,2.23 0,1.66 1.14,1.93 3.85,2.1 l 16.29,0.96 c 8.58,0.48 12.43,3.46 12.43,9.63 0,6.17 -4.29,9.06 -19.05,9.06 z m 64.62,-22.81 h -17.69 v 22.24 h -8.89 V 101.12 H 287.11 V 93.5 h 44.31 z m 43.13,-0.66 H 343.6 v 4.95 h 30.12 v 5.74 H 343.6 v 5.25 h 30.95 v 6.96 H 334.71 V 93.5 h 39.84 z m 61.43,22.9 h -8.89 v -19.31 l -15.19,19.31 h -8.97 l -15.19,-19.31 v 19.31 h -8.89 V 93.5 h 10.81 l 17.86,22.55 17.82,-22.55 h 10.64 z m 25.96,0.57 c -7.44,0 -16.07,-1.05 -21.45,-2.36 l 1.27,-7.14 c 6.13,1.36 13.57,2.54 22.55,2.54 7,0 8.27,-0.57 8.27,-2.36 0,-1.79 -1.09,-2.06 -3.41,-2.28 l -16.51,-0.96 c -9.28,-0.44 -12.65,-3.41 -12.65,-8.98 0,-6.7 5.87,-9.41 19.7,-9.41 5.3,0 13.92,0.83 19.83,2.1 l -1.44,6.7 c -5.08,-1.01 -12.96,-1.84 -20.45,-1.84 -8.06,0 -9.24,0.44 -9.24,2.23 0,1.66 1.14,1.93 3.85,2.1 l 16.29,0.96 c 8.58,0.48 12.43,3.46 12.43,9.63 0,6.17 -4.29,9.06 -19.05,9.06 z M 490.02,86.27 H 147.25 V 33.61 h 335.19 c 4.18,0 7.59,3.4 7.59,7.59 v 45.08 z"
     id="path10" />
  <g
     id="rMV8Ug"
     transform="translate(-33.67,-151.41)">
    <path
       d="m 60.69,207.23 c -0.26,-1.35 -0.51,-2.7 -0.78,-4.05 -0.74,-3.62 -1.58,-7.2 -2.98,-10.62 -1.95,-4.75 -5.33,-7.9 -9.96,-9.73 -2.85,-1.12 -5.79,-1.89 -8.76,-2.55 -1.51,-0.33 -3.02,-0.63 -4.54,-1 0.48,-0.09 1.19,-0.23 2.04,-0.41 5.44,-1.14 8.26,-1.9 11.33,-3.1 5.33,-2.08 8.74,-5.97 10.58,-11.46 1.19,-3.53 1.97,-7.16 2.68,-10.82 0.13,-0.69 0.26,-1.38 0.47,-2.08 0.17,0.91 0.34,1.83 0.52,2.74 0.73,3.74 1.52,7.45 2.87,11.01 1.31,3.45 3.24,6.43 6.3,8.51 2.2,1.5 4.61,2.53 7.15,3.2 3.22,0.85 6.47,1.55 9.71,2.31 0.15,0.04 0.31,0.07 0.59,0.14 -1.32,0.27 -2.53,0.5 -3.72,0.76 -3.58,0.77 -7.14,1.64 -10.53,3.11 -4.63,2 -7.71,5.48 -9.5,10.27 -1.21,3.26 -2,6.64 -2.68,10.05 -0.25,1.24 -0.47,2.48 -0.71,3.72 -0.02,0 -0.04,0 -0.06,0 z"
       id="path11" />
  </g>
</svg>
